HIERARCHY
ROOT Hips
{
	OFFSET 0.000000 0.000000 0.000000
	CHANNELS 6 Xposition Yposition Zposition Zrotation Yrotation Xrotation 
	JOINT LHipJoint
	{
		OFFSET 0.000000 0.000000 0.000000
		CHANNELS 3 Zrotation Yrotation Xrotation
		JOINT LeftUpLeg
		{
			OFFSET 8.178360 -10.767780 5.035740
			CHANNELS 3 Zrotation Yrotation Xrotation
			JOINT LeftLeg
			{
				OFFSET 14.688660 -40.356780 0.000000
				CHANNELS 3 Zrotation Yrotation Xrotation
				JOINT LeftFoot
				{
					OFFSET 15.373200 -42.237540 0.000000
					CHANNELS 3 Zrotation Yrotation Xrotation
					JOINT LeftToeBase
					{
						OFFSET 0.945840 -2.598660 13.935300
						CHANNELS 3 Zrotation Yrotation Xrotation
						End Site
						{
							OFFSET 0.000000 0.000000 0.000000
						}
					}
				}
			}
		}
	}
	JOINT RHipJoint
	{
		OFFSET 0.000000 0.000000 0.000000
		CHANNELS 3 Zrotation Yrotation Xrotation
		JOINT RightUpLeg
		{
			OFFSET -7.833120 -10.767780 5.035740
			CHANNELS 3 Zrotation Yrotation Xrotation
			JOINT RightLeg
			{
				OFFSET -15.255180 -41.913300 0.000000
				CHANNELS 3 Zrotation Yrotation Xrotation
				JOINT RightFoot
				{
					OFFSET -15.409560 -42.337380 0.000000
					CHANNELS 3 Zrotation Yrotation Xrotation
					JOINT RightToeBase
					{
						OFFSET -0.988380 -2.715540 14.178900
						CHANNELS 3 Zrotation Yrotation Xrotation
						End Site
						{
							OFFSET 0.000000 0.000000 0.000000
						}
					}
				}
			}
		}
	}
	JOINT LowerBack
	{
		OFFSET 0.000000 0.000000 0.000000
		CHANNELS 3 Zrotation Yrotation Xrotation
		JOINT Spine
		{
			OFFSET 0.169620 12.213540 -1.160280
			CHANNELS 3 Zrotation Yrotation Xrotation
			JOINT Spine1
			{
				OFFSET 0.340320 12.293100 -0.256500
				CHANNELS 3 Zrotation Yrotation Xrotation
				JOINT Neck
				{
					OFFSET 0.000000 0.000000 0.000000
					CHANNELS 3 Zrotation Yrotation Xrotation
					JOINT Neck1
					{
						OFFSET -0.325020 10.477440 1.032120
						CHANNELS 3 Zrotation Yrotation Xrotation
						JOINT Head
						{
							OFFSET 0.624420 10.568160 -0.743820
							CHANNELS 3 Zrotation Yrotation Xrotation
							End Site
							{
								OFFSET 0.000000 0.000000 0.000000
							}
						}
					}
				}
				JOINT LeftShoulder
				{
					OFFSET 0.000000 0.000000 0.000000
					CHANNELS 3 Zrotation Yrotation Xrotation
					JOINT LeftArm
					{
						OFFSET 20.174460 7.205340 -1.867260
						CHANNELS 3 Zrotation Yrotation Xrotation
						JOINT LeftForeArm
						{
							OFFSET 29.898000 -0.000000 -0.000000
							CHANNELS 3 Zrotation Yrotation Xrotation
							JOINT LeftHand
							{
								OFFSET 20.901360 -0.000000 -0.000000
								CHANNELS 3 Zrotation Yrotation Xrotation
								JOINT LeftFingerBase
								{
									OFFSET 0.000000 0.000000 0.000000
									CHANNELS 3 Zrotation Yrotation Xrotation
									JOINT LeftHandIndex1
									{
										OFFSET 4.291560 -0.000000 -0.000000
										CHANNELS 3 Zrotation Yrotation Xrotation
										End Site
										{
											OFFSET 0.000000 0.000000 0.000000
										}
									}
								}
								JOINT LThumb
								{
									OFFSET 0.000000 0.000000 0.000000
									CHANNELS 3 Zrotation Yrotation Xrotation
									End Site
									{
										OFFSET 0.000000 0.000000 0.000000
									}
								}
							}
						}
					}
				}
				JOINT RightShoulder
				{
					OFFSET 0.000000 0.000000 0.000000
					CHANNELS 3 Zrotation Yrotation Xrotation
					JOINT RightArm
					{
						OFFSET -18.819600 8.244300 -2.427900
						CHANNELS 3 Zrotation Yrotation Xrotation
						JOINT RightForeArm
						{
							OFFSET -31.451400 -0.000000 -0.000000
							CHANNELS 3 Zrotation Yrotation Xrotation
							JOINT RightHand
							{
								OFFSET -20.665020 -0.000000 -0.000000
								CHANNELS 3 Zrotation Yrotation Xrotation
								JOINT RightFingerBase
								{
									OFFSET 0.000000 0.000000 0.000000
									CHANNELS 3 Zrotation Yrotation Xrotation
									JOINT RightHandIndex1
									{
										OFFSET -3.735180 -0.000000 -0.000000
										CHANNELS 3 Zrotation Yrotation Xrotation
										End Site
										{
											OFFSET 0.000000 0.000000 0.000000
										}
									}
								}
								JOINT RThumb
								{
									OFFSET 0.000000 0.000000 0.000000
									CHANNELS 3 Zrotation Yrotation Xrotation
									End Site
									{
										OFFSET 0.000000 0.000000 0.000000
									}
								}
							}
						}
					}
				}
			}
		}
	}
}
MOTION
Frames:	8
Frame Time:	0.0333333
3.826080 107.886312 -2.148144 -4.102438 -0.324096 8.892244 5.116177 3.018462 2.332760 -15.862398 -12.902829 -44.458110 14.885746 19.860945 75.293229 0.414908 -1.856514 6.157639 0.314400 -3.604500 -9.966400 -6.783640 -3.710903 -1.393773 34.665484 -3.035016 11.102719 -2.193243 -5.501702 19.495881 0.031501 -8.196274 19.276065 -0.572400 4.845300 -13.468000 8.687002 3.169422 9.586047 2.293652 5.051053 -0.325237 -1.240438 2.720681 -6.361056 -7.340404 -4.719005 -18.135349 4.234631 -4.881550 7.195505 2.738700 -2.393200 7.866900 -3.593381 3.386196 -2.949638 -82.090922 32.893900 40.276352 111.513155 -62.603590 -80.737517 0.044527 -0.871673 -29.629194 15.429959 10.109100 3.066700 -7.125000 0.000000 0.000000 -9.986000 41.088100 0.974300 1.465366 -2.559869 -1.536135 85.220947 -7.555186 40.953372 -142.084159 47.835636 -103.869318 1.361847 -1.350411 -5.527916 -16.565830 27.490017 -8.794200 7.125000 0.000000 0.000000 7.518200 -0.171600 7.561100 
4.005096 109.530234 8.899278 -3.399821 0.524791 8.699615 4.950676 2.872153 2.262613 -17.866203 -13.676180 -42.032747 9.188544 17.323077 57.366091 0.451907 -2.269304 6.224602 0.370300 -3.908700 -10.820000 -6.582667 -3.529580 -1.700749 32.253119 -4.671726 16.928177 -1.826445 -4.379589 15.511812 -1.063431 -12.601427 30.198892 0.000000 0.006000 -0.016600 8.300304 3.561286 7.842646 1.998261 5.294783 -0.458522 -1.399289 2.858908 -5.534510 -7.854904 -5.029438 -17.479589 4.976496 -5.269292 7.907314 3.037300 -2.548600 8.046100 -3.576863 3.414795 -3.043708 -82.004137 35.501895 39.760506 114.222557 -62.153076 -82.647654 -0.053072 -0.825511 -30.274983 15.824363 7.838365 2.481900 -7.125000 0.000000 0.000000 -9.144000 38.708800 1.431200 1.445291 -2.534450 -1.491331 84.643862 -8.937782 41.603913 -139.976817 49.151082 -102.481449 1.318277 -1.290026 -3.692978 -16.459917 26.085918 -8.330300 7.125000 0.000000 0.000000 7.428500 -1.706700 7.265800 
4.042686 110.216448 19.645368 -4.001495 1.330276 8.650291 4.783510 2.765506 2.108449 -17.476872 -14.725331 -39.063567 4.624573 13.287181 40.039962 0.570205 -1.619984 10.368658 0.635200 -5.099200 -14.191700 -6.469893 -3.358497 -1.619610 33.783957 -2.136011 20.688914 -2.190663 -5.279648 18.367808 -0.541425 -14.635926 28.264552 -0.071300 -1.722400 4.739100 8.842174 3.789379 7.193801 1.956836 5.587393 -0.685437 -1.681543 2.979464 -5.493127 -8.291466 -5.391463 -18.019623 5.311735 -5.667982 9.029755 3.162200 -2.729200 8.593800 -3.545443 3.400245 -3.090684 -80.859156 36.788052 40.341023 117.671172 -61.413150 -85.101388 -0.120068 -0.742432 -29.842973 14.913693 6.151913 1.850300 -7.125000 0.000000 0.000000 -9.610300 36.818000 1.956400 1.451046 -2.512242 -1.487123 84.013910 -10.427621 42.657725 -138.232601 50.148317 -101.322601 1.347770 -1.215198 -4.582809 -16.626594 25.508439 -8.242500 7.125000 0.000000 0.000000 7.262000 -2.316800 7.019800 
3.925134 109.780254 30.139044 -4.791996 1.404210 8.423984 4.660106 2.730411 1.913954 -16.510052 -15.212086 -36.313513 2.351041 9.897406 28.579874 0.263332 2.131247 10.685038 0.773100 -5.614100 -15.668800 -6.432453 -3.266811 -1.325784 36.110465 1.151765 20.987740 -3.535499 -7.988470 27.844734 -0.487514 -8.247444 23.329651 -0.083000 -1.858700 5.115300 8.657054 3.922339 6.890983 2.131997 5.727088 -0.744504 -1.161442 3.059374 -5.515833 -8.449789 -5.464845 -17.516550 5.609241 -5.765674 8.802454 3.283700 -2.761400 8.446800 -3.539601 3.411711 -3.083135 -80.702034 36.711702 40.503402 119.758914 -60.863041 -86.617012 -0.140016 -0.681227 -28.185434 13.712238 5.497197 1.519300 -7.125000 0.000000 0.000000 -10.520600 36.030700 2.352000 1.513136 -2.494457 -1.487515 83.050264 -11.126112 44.175131 -135.337797 51.704931 -99.376791 1.407955 -1.007082 -6.109975 -17.677665 23.260000 -8.045500 7.125000 0.000000 0.000000 6.380100 -4.605600 5.884600 
3.690030 108.240156 40.413138 -4.859272 1.772168 7.691170 4.651758 2.734164 1.726519 -16.903592 -14.557805 -34.445807 1.888522 8.910576 25.687827 0.391049 1.471290 11.991920 0.815600 -5.762700 -16.097500 -6.438601 -3.271052 -0.986016 37.520565 3.247717 17.716844 -6.298827 -11.819598 42.356875 -0.998830 -1.515968 21.744250 -0.065300 -1.648400 4.534900 7.611979 3.605890 6.191785 2.199084 5.083114 -0.085215 -0.283869 2.806094 -4.092024 -8.646372 -5.292108 -17.810101 6.540011 -5.465758 7.925566 3.669400 -2.516600 8.192900 -3.568422 3.523161 -2.981845 -80.216292 34.832269 40.839433 122.405922 -60.107815 -88.487548 -0.197685 -0.678869 -28.194393 15.231089 5.604538 1.717600 -7.125000 0.000000 0.000000 -9.233300 36.195400 2.020000 1.664322 -2.520236 -1.486349 82.965181 -10.058553 44.591627 -130.258283 54.176184 -95.708542 1.391773 -0.982674 -6.646449 -16.655334 24.206864 -7.844500 7.125000 0.000000 0.000000 7.100900 -3.817200 6.664700 
3.308736 105.224406 50.370378 -3.738778 2.318968 5.527103 4.693263 2.788790 1.648809 -19.224659 -12.591608 -32.432935 2.705087 10.243827 30.476751 0.897147 -6.447484 12.388409 0.053900 -1.497500 -4.118900 -6.399784 -3.313568 -0.771699 36.116434 2.342598 13.356078 -10.530264 -15.352627 59.457022 -1.316407 1.646192 20.975979 -0.132900 2.349800 -6.473400 5.391243 2.860784 8.497112 1.863104 4.136690 0.024552 0.326032 2.347144 -5.319875 -8.229634 -4.934284 -16.967382 6.979181 -5.188053 7.811161 3.773100 -2.339200 7.983800 -3.638663 3.518067 -2.904189 -78.798960 33.458214 41.755435 124.530224 -59.405912 -89.996993 -0.213316 -0.694264 -28.022060 15.958812 7.042616 2.226800 -7.125000 0.000000 0.000000 -8.827100 37.720800 1.596700 1.783161 -2.465690 -1.476104 84.134569 -11.272127 44.309850 -123.559454 56.653279 -90.854368 1.417348 -0.912326 -6.744032 -15.909500 24.732430 -7.640000 7.125000 0.000000 0.000000 7.573600 -3.466400 7.165700 
3.110628 102.086322 60.207084 -2.817343 2.852990 3.777074 4.812027 2.847272 1.610830 -20.803048 -12.589610 -30.113955 5.046525 13.240769 41.315746 1.014287 -12.306216 0.570984 0.002900 -0.349900 -0.961400 -6.474083 -3.437761 -0.584769 33.653169 1.339114 6.109229 -15.913594 -17.663256 77.314028 -0.818052 -1.997211 16.140430 -0.032700 1.168000 -3.211100 3.441824 1.942536 10.422372 1.671241 2.831420 0.309372 1.207676 1.737943 -5.971050 -8.032961 -4.516687 -16.518073 7.497983 -4.721517 7.502089 3.960100 -2.066800 7.761500 -3.721342 3.551765 -2.790844 -78.156209 30.375663 42.710886 126.817402 -58.574572 -91.658902 -0.272297 -0.706716 -27.528777 17.918915 7.838792 2.775900 -7.125000 0.000000 0.000000 -7.236100 38.669600 1.135400 1.941078 -2.432911 -1.484146 85.494676 -12.635728 42.994012 -115.202200 58.866602 -84.710780 1.504004 -0.757063 -5.054026 -16.834178 23.721101 -7.777300 7.125000 0.000000 0.000000 6.829900 -4.543000 6.313400 
3.022320 99.888060 69.443502 2.452593 1.137394 3.498109 4.934344 2.944912 1.373921 -28.534357 -11.078774 -23.786210 5.979208 13.860714 44.777028 1.341357 -7.221385 -10.598791 0.021500 -0.946500 -2.601600 -6.456251 -3.568632 -0.259312 24.281119 2.945045 -4.755203 -21.506231 -18.544083 94.239546 -0.829232 -1.796607 14.477642 -0.228400 3.075800 -8.489800 -2.682356 1.953313 11.403288 0.414668 2.027835 0.867683 2.510295 1.430272 -5.651094 -7.958619 -4.594409 -17.688660 8.133068 -4.761152 6.933600 4.117400 -1.980300 7.804300 -3.965174 3.639382 -2.605141 -77.922990 22.556360 42.987629 124.412007 -59.294940 -89.965907 -0.202995 -0.753621 -28.604015 17.693242 9.079861 3.158400 -7.125000 0.000000 0.000000 -7.660200 40.007400 0.949200 2.182047 -2.435664 -1.598531 88.063538 -13.330199 39.586728 -99.921938 60.657185 -73.090992 1.790072 -0.585418 -5.824138 -17.765368 25.236116 -8.743900 7.125000 0.000000 0.000000 6.206800 -2.988600 5.910000 
